<?xml version="1.0" standalone="no"?>
<!DOCTYPE svg PUBLIC "-//W3C//DTD SVG 20010904//EN"
 "http://www.w3.org/TR/2001/REC-SVG-20010904/DTD/svg10.dtd">
<svg version="1.0" xmlns="http://www.w3.org/2000/svg"
 width="512.000000pt" height="512.000000pt" viewBox="0 0 512.000000 512.000000"
 preserveAspectRatio="xMidYMid meet">
<metadata>
Created by potrace 1.11, written by Peter Selinger 2001-2013
</metadata>
<g transform="translate(0.000000,512.000000) scale(0.100000,-0.100000)"
fill="#000000" stroke="none">
<path d="M1485 4106 c-27 -7 -70 -23 -94 -35 -41 -22 -144 -116 -201 -186 -31
-38 -190 -224 -210 -247 -8 -9 -64 -75 -125 -146 l-110 -130 -215 -3 -215 -4
-65 -31 c-82 -40 -134 -92 -174 -174 l-31 -65 -2 -291 c-3 -313 0 -342 53
-446 47 -92 156 -179 268 -212 23 -7 77 -13 122 -15 l81 -3 -3 99 c-4 122 13
201 67 311 72 147 229 281 379 323 25 7 52 14 60 17 40 11 211 9 270 -4 178
-38 350 -172 429 -336 53 -110 70 -188 67 -310 l-3 -98 807 0 806 0 -2 100
c-3 124 14 198 68 310 77 160 245 292 426 334 78 18 219 17 292 -1 180 -46
342 -175 418 -334 54 -111 70 -185 68 -309 l-2 -102 50 7 c69 8 163 53 210
101 21 21 52 68 70 104 l31 65 2 250 c3 269 0 291 -53 381 -43 73 -149 146
-231 160 -16 2 -39 7 -53 9 -14 3 -38 8 -55 10 -16 3 -41 8 -55 10 -56 12
-160 31 -215 40 -16 3 -55 10 -85 16 -30 6 -68 12 -85 15 -16 3 -40 7 -53 10
-13 2 -60 11 -105 19 -45 8 -93 17 -107 20 -14 3 -51 9 -82 14 -55 9 -67 17
-240 162 -101 83 -194 161 -208 173 -14 11 -104 86 -200 166 -96 79 -184 153
-195 163 -32 29 -102 67 -161 87 -51 18 -93 19 -707 19 -487 0 -665 -4 -702
-13z m277 -234 l33 -32 0 -205 0 -205 -33 -32 -32 -33 -288 -3 c-158 -2 -296
-1 -308 2 -19 5 -44 43 -44 66 0 9 227 279 362 431 40 45 56 49 170 47 107 -3
108 -3 140 -36z m1085 11 c22 -16 56 -40 74 -55 19 -15 132 -104 252 -199 120
-94 222 -181 226 -193 11 -27 -6 -64 -33 -72 -31 -11 -1181 -6 -1208 5 -13 5
-34 21 -48 36 -25 26 -25 30 -28 215 -3 159 -1 195 13 224 30 63 43 66 396 66
l316 0 40 -27z m-366 -759 c25 -25 32 -42 35 -78 3 -42 0 -51 -30 -84 l-34
-37 -131 0 -131 0 -32 33 c-29 28 -33 39 -33 83 0 46 4 54 38 86 l38 35 125
-4 c124 -3 124 -3 155 -34z"/>
<path d="M1078 2744 c-88 -20 -176 -70 -244 -138 -246 -246 -184 -660 123
-823 253 -135 566 -38 702 217 84 156 78 351 -14 505 -117 195 -342 290 -567
239z m225 -289 c76 -36 137 -132 137 -215 0 -83 -62 -181 -138 -217 -48 -23
-154 -23 -203 1 -111 53 -163 182 -122 302 17 51 93 125 145 141 47 15 137 9
181 -12z"/>
<path d="M3955 2744 c-138 -33 -272 -140 -337 -271 -130 -260 -26 -569 235
-698 300 -148 665 29 733 355 37 178 -13 347 -141 475 -129 130 -310 181 -490
139z m204 -280 c90 -30 152 -113 157 -211 3 -77 -14 -121 -71 -178 -95 -95
-221 -100 -320 -13 -101 89 -111 233 -23 333 70 79 154 102 257 69z"/>
</g>
</svg>
